<svg width="57" height="57" viewBox="0 0 57 57" fill="none" xmlns="http://www.w3.org/2000/svg">
<rect x="1.65002" y="1.19" width="54" height="54" rx="27" fill="white"/>
<rect x="1.65002" y="1.19" width="54" height="54" rx="27" stroke="#AED5E2" stroke-width="2"/>
<g clip-path="url(#clip0_1_304)">
<g clip-path="url(#clip1_1_304)">
<path d="M15.41 18.3229C16.4767 13.7095 23.4233 13.7095 24.4767 18.3229C25.1033 21.0295 23.3833 23.3229 21.89 24.7495C20.7967 25.7895 19.0767 25.7762 17.9833 24.7495C16.5033 23.3229 14.7833 21.0295 15.41 18.3229Z" fill="url(#paint0_linear_1_304)" stroke="#BD3C00" stroke-width="2"/>
<path d="M32.7433 34.3229C33.81 29.7095 40.7967 29.7095 41.8633 34.3229C42.49 37.0295 40.77 39.3229 39.2633 40.7495C38.17 41.7895 36.4367 41.7762 35.3433 40.7495C33.8367 39.3229 32.1167 37.0295 32.7433 34.3229Z" stroke="#BD3C00" stroke-width="2"/>
<path d="M28.65 18.857H32.2233C34.69 18.857 35.8367 21.9103 33.9833 23.537L23.33 32.857C21.4767 34.4703 22.6234 37.5237 25.0767 37.5237H28.65" stroke="#BD3C00" stroke-width="2" stroke-linecap="round" stroke-linejoin="round"/>
<path d="M19.965 19.5237H19.9804" stroke="#BD3C00" stroke-width="2" stroke-linecap="round" stroke-linejoin="round"/>
<path d="M37.2983 35.5237H37.3137" stroke="#BD3C00" stroke-width="2" stroke-linecap="round" stroke-linejoin="round"/>
</g>
</g>
<defs>
<linearGradient id="paint0_linear_1_304" x1="19.9433" y1="14.8629" x2="19.9433" y2="25.5245" gradientUnits="userSpaceOnUse">
<stop stop-color="#EF6B01" stop-opacity="0.6"/>
<stop offset="1" stop-color="#EF6B01" stop-opacity="0"/>
</linearGradient>
<clipPath id="clip0_1_304">
<rect width="32" height="32" fill="white" transform="translate(12.65 12.19)"/>
</clipPath>
<clipPath id="clip1_1_304">
<rect width="32" height="32" fill="white" transform="translate(12.65 12.19)"/>
</clipPath>
</defs>
</svg>
