<svg width="57" height="57" viewBox="0 0 57 57" fill="none" xmlns="http://www.w3.org/2000/svg">
<rect x="1.07162" y="1.30499" width="54" height="54" rx="27" fill="white"/>
<rect x="1.07162" y="1.30499" width="54" height="54" rx="27" stroke="#AED5E2" stroke-width="2"/>
<g clip-path="url(#clip0_1_367)">
<g clip-path="url(#clip1_1_367)">
<path d="M15.125 22.678V35.6513C15.125 38.1846 16.925 39.2246 19.1116 37.9713L22.2449 36.1846C22.9249 35.798 24.0583 35.758 24.7649 36.118L31.7649 39.6246C32.4716 39.9713 33.6049 39.9446 34.2849 39.558L40.0583 36.2513C40.7916 35.8246 41.4049 34.7846 41.4049 33.9313V20.958C41.4049 18.4246 39.6049 17.3846 37.4183 18.638L34.2849 20.4246C33.6049 20.8113 32.4716 20.8513 31.7649 20.4913L24.7649 16.998C24.0583 16.6513 22.9249 16.678 22.2449 17.0646L16.4716 20.3713C15.725 20.798 15.125 21.838 15.125 22.678Z" fill="url(#paint0_linear_1_367)" stroke="#BD3C00" stroke-width="2" stroke-linecap="round" stroke-linejoin="round"/>
<path d="M23.4849 17.638V34.9713" stroke="#BD3C00" stroke-width="2" stroke-linecap="round" stroke-linejoin="round"/>
<path d="M33.0449 21.1321V38.9721" stroke="#BD3C00" stroke-width="2" stroke-linecap="round" stroke-linejoin="round"/>
</g>
</g>
<defs>
<linearGradient id="paint0_linear_1_367" x1="28.2649" y1="16.7552" x2="28.2649" y2="39.8674" gradientUnits="userSpaceOnUse">
<stop stop-color="#EF6B01" stop-opacity="0.6"/>
<stop offset="1" stop-color="#EF6B01" stop-opacity="0"/>
</linearGradient>
<clipPath id="clip0_1_367">
<rect width="32" height="32" fill="white" transform="translate(12.0716 12.305)"/>
</clipPath>
<clipPath id="clip1_1_367">
<rect width="32" height="32" fill="white" transform="translate(12.0716 12.305)"/>
</clipPath>
</defs>
</svg>
