<svg width="57" height="57" viewBox="0 0 57 57" fill="none" xmlns="http://www.w3.org/2000/svg">
<rect x="1.39163" y="1.935" width="54" height="54" rx="27" fill="white"/>
<rect x="1.39163" y="1.935" width="54" height="54" rx="27" stroke="#AED5E2" stroke-width="2"/>
<g clip-path="url(#clip0_1_337)">
<g clip-path="url(#clip1_1_337)">
<path d="M15.445 23.308V36.2813C15.445 38.8146 17.245 39.8546 19.4316 38.6013L22.5649 36.8146C23.2449 36.428 24.3783 36.388 25.0849 36.748L32.0849 40.2546C32.7916 40.6013 33.9249 40.5746 34.6049 40.188L40.3783 36.8813C41.1116 36.4546 41.7249 35.4146 41.7249 34.5613V21.588C41.7249 19.0546 39.9249 18.0146 37.7383 19.268L34.6049 21.0546C33.9249 21.4413 32.7916 21.4813 32.0849 21.1213L25.0849 17.628C24.3783 17.2813 23.2449 17.308 22.5649 17.6946L16.7916 21.0013C16.045 21.428 15.445 22.468 15.445 23.308Z" fill="url(#paint0_linear_1_337)" stroke="#BD3C00" stroke-width="2" stroke-linecap="round" stroke-linejoin="round"/>
<path d="M23.8049 18.268V35.6013" stroke="#BD3C00" stroke-width="2" stroke-linecap="round" stroke-linejoin="round"/>
<path d="M33.3649 21.7621V39.6021" stroke="#BD3C00" stroke-width="2" stroke-linecap="round" stroke-linejoin="round"/>
</g>
</g>
<defs>
<linearGradient id="paint0_linear_1_337" x1="28.5849" y1="17.3852" x2="28.5849" y2="40.4974" gradientUnits="userSpaceOnUse">
<stop stop-color="#EF6B01" stop-opacity="0.6"/>
<stop offset="1" stop-color="#EF6B01" stop-opacity="0"/>
</linearGradient>
<clipPath id="clip0_1_337">
<rect width="32" height="32" fill="white" transform="translate(12.3916 12.935)"/>
</clipPath>
<clipPath id="clip1_1_337">
<rect width="32" height="32" fill="white" transform="translate(12.3916 12.935)"/>
</clipPath>
</defs>
</svg>
