<svg width="87" height="88" viewBox="0 0 87 88" fill="none" xmlns="http://www.w3.org/2000/svg">
<path d="M43.6323 0.666504C19.7556 0.666504 0.29895 20.1232 0.29895 43.9998C0.29895 67.8765 19.7556 87.3332 43.6323 87.3332C67.509 87.3332 86.9657 67.8765 86.9657 43.9998C86.9657 20.1232 67.509 0.666504 43.6323 0.666504ZM64.3457 34.0332L39.7756 58.6032C39.169 59.2098 38.3456 59.5565 37.479 59.5565C36.6123 59.5565 35.789 59.2098 35.1823 58.6032L22.919 46.3398C21.6623 45.0832 21.6623 43.0032 22.919 41.7465C24.1756 40.4898 26.2556 40.4898 27.5123 41.7465L37.479 51.7132L59.7523 29.4398C61.009 28.1832 63.089 28.1832 64.3457 29.4398C65.6023 30.6965 65.6023 32.7332 64.3457 34.0332Z" fill="#AED5E2"/>
</svg>
