<svg width="160" height="159" viewBox="0 0 160 159" fill="none" xmlns="http://www.w3.org/2000/svg">
<g opacity="0.2">
<g clip-path="url(#clip0_1_408)">
<path d="M24.4825 56.2463C37.5337 -1.12624 122.532 -1.05998 135.517 56.3125C143.136 89.9675 122.201 118.455 103.85 136.078C90.5338 148.93 69.4663 148.93 56.0837 136.078C37.7987 118.455 16.8637 89.9013 24.4825 56.2463Z" fill="url(#paint0_linear_1_408)" stroke="white" stroke-width="3"/>
<path d="M80 88.9733C91.4157 88.9733 100.67 79.719 100.67 68.3033C100.67 56.8876 91.4157 47.6333 80 47.6333C68.5842 47.6333 59.33 56.8876 59.33 68.3033C59.33 79.719 68.5842 88.9733 80 88.9733Z" fill="white" stroke="white" stroke-width="3"/>
</g>
</g>
<defs>
<linearGradient id="paint0_linear_1_408" x1="40.9039" y1="32.7688" x2="99.1335" y2="107.925" gradientUnits="userSpaceOnUse">
<stop stop-color="white" stop-opacity="0.6"/>
<stop offset="1" stop-color="white" stop-opacity="0"/>
</linearGradient>
<clipPath id="clip0_1_408">
<rect width="159" height="159" fill="white" transform="translate(0.5)"/>
</clipPath>
</defs>
</svg>
