<svg width="40" height="41" viewBox="0 0 40 41" fill="none" xmlns="http://www.w3.org/2000/svg">
<g clip-path="url(#clip0_1_43)">
<g clip-path="url(#clip1_1_43)">
<g clip-path="url(#clip2_1_43)">
<path d="M40 20.3896C40 9.34395 31.0457 0.389648 20 0.389648C8.9543 0.389648 0 9.34395 0 20.3896C0 31.4353 8.9543 40.3896 20 40.3896C31.0457 40.3896 40 31.4353 40 20.3896Z" fill="white"/>
<mask id="mask0_1_43" style="mask-type:luminance" maskUnits="userSpaceOnUse" x="0" y="0" width="40" height="41">
<path d="M40 20.3896C40 9.34395 31.0457 0.389648 20 0.389648C8.9543 0.389648 0 9.34395 0 20.3896C0 31.4353 8.9543 40.3896 20 40.3896C31.0457 40.3896 40 31.4353 40 20.3896Z" fill="white"/>
</mask>
<g mask="url(#mask0_1_43)">
<path d="M25.01 18.3696C24.9 16.2396 23.82 15.1096 21.75 0.389648" stroke="#BD3C00" stroke-width="1.63382" stroke-linecap="round" stroke-linejoin="round"/>
<path d="M27.8002 19.3096C27.8402 17.3196 27.2502 15.6596 26.0302 14.3196C24.8102 12.9796 23.1102 12.2396 20.9302 0.389648" stroke="#BD3C00" stroke-width="1.63382" stroke-linecap="round" stroke-linejoin="round"/>
<path d="M30.66 20.4296C30.64 16.9796 29.6 14.2596 27.57 12.2696C25.53 10.2796 23 9.27965 19.97 0.389648" stroke="#BD3C00" stroke-width="1.63382" stroke-linecap="round" stroke-linejoin="round"/>
<path d="M21.8601 25.6698C21.8601 25.6698 22.6301 25.7298 23.0401 25.2198L23.8401 24.2098C24.2301 23.7098 25.1601 23.3898 26.0801 23.8998C26.7701 24.2898 27.4301 24.7198 28.0801 25.1798C28.6901 25.6198 29.9301 26.6598 29.9301 26.6598C30.5301 27.1598 30.6601 27.8998 30.2601 28.6698C30.2601 28.6798 30.2601 28.6898 30.2601 28.6898C29.8101 29.4598 29.2501 30.1598 28.5801 30.7498C28.5801 30.7498 28.5801 30.7598 28.5701 30.7598C27.9901 31.2398 27.4301 31.5198 26.8701 31.5798C26.7901 31.5998 26.7101 31.5998 26.6201 31.5998C26.3801 31.5998 26.1301 31.5598 25.9001 31.4898L25.8801 31.4598C25.0301 31.2198 23.6001 30.6098 21.2101 29.2998C19.8401 28.5498 18.5201 27.6798 17.2901 26.7098C16.6701 26.2198 16.0801 25.6998 15.5301 25.1398L15.4701 25.0798L15.4101 25.0198L15.3501 24.9698C15.3301 24.9498 15.3101 24.9298 15.2901 24.9098C14.7301 24.3498 14.2101 23.7598 13.7201 23.1398C12.7501 21.9098 11.8801 20.5998 11.1301 19.2198C9.82008 16.8398 9.21008 15.4098 8.97008 14.5498L8.95008 14.5298C8.87008 14.2998 8.83008 14.0498 8.84008 13.8098C8.83008 13.7298 8.84008 13.6398 8.85008 13.5598C8.92008 13.0098 9.19008 12.4398 9.67008 11.8598C9.68008 11.8498 9.68008 11.8498 9.68008 11.8498C10.2801 11.1798 10.9701 10.6198 11.7401 10.1698C11.7501 10.1698 11.7601 10.1698 11.7601 10.1698C12.5401 9.76978 13.2701 9.89978 13.7701 10.4898C13.7701 10.4998 14.8101 11.7398 15.2601 12.3498C15.7201 12.9998 16.1401 13.6598 16.5301 14.3498C17.0401 15.2598 16.7201 16.1998 16.2201 16.5898L15.2101 17.3898C14.7001 17.7998 14.7701 18.5698 14.7701 18.5698C14.7701 18.5698 16.2601 24.2398 21.8601 25.6698Z" fill="#BD3C00"/>
</g>
</g>
</g>
</g>
<defs>
<clipPath id="clip0_1_43">
<rect width="40" height="40" fill="white" transform="translate(0 0.389648)"/>
</clipPath>
<clipPath id="clip1_1_43">
<rect width="40" height="40" fill="white" transform="translate(0 0.389648)"/>
</clipPath>
<clipPath id="clip2_1_43">
<rect width="40" height="40" fill="white" transform="translate(0 0.389648)"/>
</clipPath>
</defs>
</svg>
