<svg width="40" height="41" viewBox="0 0 40 41" fill="none" xmlns="http://www.w3.org/2000/svg">
<g clip-path="url(#clip0_1_31)">
<g clip-path="url(#clip1_1_31)">
<g clip-path="url(#clip2_1_31)">
<path d="M40 20.3896C40 9.34395 31.0457 0.389648 20 0.389648C8.9543 0.389648 0 9.34395 0 20.3896C0 31.4353 8.9543 40.3896 20 40.3896C31.0457 40.3896 40 31.4353 40 20.3896Z" fill="white"/>
<mask id="mask0_1_31" style="mask-type:luminance" maskUnits="userSpaceOnUse" x="0" y="0" width="40" height="41">
<path d="M40 20.3896C40 9.34395 31.0457 0.389648 20 0.389648C8.9543 0.389648 0 9.34395 0 20.3896C0 31.4353 8.9543 40.3896 20 40.3896C31.0457 40.3896 40 31.4353 40 20.3896Z" fill="white"/>
</mask>
<g mask="url(#mask0_1_31)">
<path fill-rule="evenodd" clip-rule="evenodd" d="M15.05 8.45965C16.33 8.39965 16.74 8.38965 20 8.38965C23.26 8.38965 23.67 8.39965 24.95 8.44965C26.23 8.50965 27.11 8.70965 27.87 9.00965C28.66 9.31965 29.33 9.72965 29.99 10.3996C30.66 11.0596 31.08 11.7296 31.38 12.5196C31.68 13.2896 31.88 14.1596 31.94 15.4396C32 16.7196 32.01 17.1196 32.01 20.3896C32.01 23.6496 32 24.0496 31.94 25.3396C31.88 26.6196 31.68 27.4896 31.38 28.2496C31.07 29.0396 30.66 29.7096 29.99 30.3796C29.33 31.0396 28.66 31.4597 27.87 31.7596C27.1 32.0596 26.23 32.2596 24.95 32.3196C23.67 32.3796 23.27 32.3896 20 32.3896C16.74 32.3896 16.33 32.3796 15.05 32.3196C13.77 32.2596 12.9 32.0596 12.14 31.7596C11.35 31.4496 10.68 31.0396 10.01 30.3796C9.34 29.7096 8.93 29.0396 8.63 28.2496C8.33 27.4896 8.13 26.6096 8.07 25.3396C8.01 24.0496 8 23.6496 8 20.3896C8 17.1296 8.01 16.7196 8.07 15.4396C8.13 14.1596 8.33 13.2896 8.63 12.5296C8.94 11.7396 9.34 11.0696 10.01 10.3996C10.68 9.72965 11.35 9.31965 12.14 9.00965C12.9 8.71965 13.77 8.50965 15.05 8.45965Z" fill="#BD3C00"/>
<path d="M20.0001 14.2295C16.6001 14.2295 13.8301 16.9895 13.8301 20.3895C13.8301 23.7995 16.5901 26.5595 20.0001 26.5595C23.4001 26.5595 26.1601 23.7995 26.1601 20.3895C26.1601 16.9895 23.4001 14.2295 20.0001 14.2295ZM20.0001 24.3895C17.7901 24.3895 16.0001 22.5995 16.0001 20.3895C16.0001 18.1795 17.7901 16.3895 20.0001 16.3895C22.2101 16.3895 24.0001 18.1795 24.0001 20.3895C24.0001 22.5995 22.2101 24.3895 20.0001 24.3895Z" fill="white"/>
<path fill-rule="evenodd" clip-rule="evenodd" d="M27.85 13.9796C27.85 14.7696 27.2 15.4196 26.41 15.4196C25.61 15.4196 24.97 14.7696 24.97 13.9796C24.97 13.1796 25.61 12.5396 26.41 12.5396C27.2 12.5396 27.85 13.1796 27.85 13.9796Z" fill="white"/>
</g>
</g>
</g>
</g>
<defs>
<clipPath id="clip0_1_31">
<rect width="40" height="40" fill="white" transform="translate(0 0.389648)"/>
</clipPath>
<clipPath id="clip1_1_31">
<rect width="40" height="40" fill="white" transform="translate(0 0.389648)"/>
</clipPath>
<clipPath id="clip2_1_31">
<rect width="40" height="40" fill="white" transform="translate(0 0.389648)"/>
</clipPath>
</defs>
</svg>
