<svg width="71" height="71" viewBox="0 0 71 71" fill="none" xmlns="http://www.w3.org/2000/svg">
<rect x="2.41162" y="2.66479" width="66" height="66" rx="33" fill="white"/>
<rect x="2.41162" y="2.66479" width="66" height="66" rx="33" stroke="#AED5E2" stroke-width="4"/>
<path d="M23.3497 25.8128V16.7568H18.4377L18.3577 19.1088C18.3257 19.8982 18.2724 20.6555 18.1977 21.3808C18.1337 22.1062 18.0377 22.7622 17.9097 23.3488C17.7817 23.9248 17.6004 24.3995 17.3657 24.7728C17.1417 25.1462 16.8537 25.3755 16.5017 25.4608L14.7737 25.1728C15.1897 25.2048 15.5311 25.0662 15.7977 24.7568C16.0751 24.4368 16.2884 23.9942 16.4377 23.4288C16.5977 22.8528 16.7151 22.1862 16.7897 21.4288C16.8644 20.6608 16.9177 19.8395 16.9497 18.9648L17.0617 15.3648H24.9337V25.8128H23.3497ZM14.3737 29.0128L14.3897 25.1728H26.5817V29.0128H25.0937V26.5648H15.8777L15.8617 29.0128H14.3737ZM32.1016 26.6608C31.1949 26.6608 30.3949 26.4742 29.7016 26.1008C29.0189 25.7275 28.4856 25.2155 28.1016 24.5648C27.7283 23.9142 27.5416 23.1675 27.5416 22.3248C27.5416 21.4822 27.7229 20.7355 28.0856 20.0848C28.4589 19.4342 28.9656 18.9275 29.6056 18.5648C30.2563 18.1915 30.9869 18.0048 31.7976 18.0048C32.6189 18.0048 33.3443 18.1862 33.9736 18.5488C34.6029 18.9115 35.0936 19.4235 35.4456 20.0848C35.8083 20.7355 35.9896 21.4982 35.9896 22.3728C35.9896 22.4368 35.9843 22.5115 35.9736 22.5968C35.9736 22.6822 35.9683 22.7622 35.9576 22.8368H28.7416V21.7328H35.1576L34.5336 22.1168C34.5443 21.5728 34.4323 21.0875 34.1976 20.6608C33.9629 20.2342 33.6376 19.9035 33.2216 19.6688C32.8163 19.4235 32.3416 19.3008 31.7976 19.3008C31.2643 19.3008 30.7896 19.4235 30.3736 19.6688C29.9576 19.9035 29.6323 20.2395 29.3976 20.6768C29.1629 21.1035 29.0456 21.5942 29.0456 22.1488V22.4048C29.0456 22.9702 29.1736 23.4768 29.4296 23.9248C29.6963 24.3622 30.0643 24.7035 30.5336 24.9488C31.0029 25.1942 31.5416 25.3168 32.1496 25.3168C32.6509 25.3168 33.1043 25.2315 33.5096 25.0608C33.9256 24.8902 34.2883 24.6342 34.5976 24.2928L35.4456 25.2848C35.0616 25.7328 34.5816 26.0742 34.0056 26.3088C33.4403 26.5435 32.8056 26.6608 32.1016 26.6608ZM38.3725 26.5648V18.0848H39.9085V21.6848H44.7405V18.0848H46.2765V26.5648H44.7405V23.0128H39.9085V26.5648H38.3725ZM53.1831 20.9648C54.2604 20.9755 55.0818 21.2208 55.6471 21.7008C56.2124 22.1808 56.4951 22.8582 56.4951 23.7328C56.4951 24.6502 56.1858 25.3595 55.5671 25.8608C54.9484 26.3515 54.0738 26.5915 52.9431 26.5808L49.2631 26.5648V18.0848H50.7991V20.9488L53.1831 20.9648ZM52.8151 25.4128C53.5084 25.4235 54.0311 25.2848 54.3831 24.9968C54.7458 24.7088 54.9271 24.2822 54.9271 23.7168C54.9271 23.1622 54.7511 22.7568 54.3991 22.5008C54.0471 22.2448 53.5191 22.1115 52.8151 22.1008L50.7991 22.0688V25.3968L52.8151 25.4128Z" fill="#2B2B2B" fill-opacity="0.7"/>
<path d="M34.2197 53.8547V38.4947L35.8997 40.1747H30.8597V37.0547H38.1077V53.8547H34.2197Z" fill="#2B2B2B"/>
</svg>
