<svg width="70" height="71" viewBox="0 0 70 71" fill="none" xmlns="http://www.w3.org/2000/svg">
<rect x="2" y="2.56006" width="66" height="66" rx="33" fill="white"/>
<rect x="2" y="2.56006" width="66" height="66" rx="33" stroke="#AED5E2" stroke-width="4"/>
<path d="M22.9381 25.7081V16.6521H18.0261L17.9461 19.0041C17.9141 19.7934 17.8608 20.5507 17.7861 21.2761C17.7221 22.0014 17.6261 22.6574 17.4981 23.2441C17.3701 23.8201 17.1888 24.2947 16.9541 24.6681C16.7301 25.0414 16.4421 25.2707 16.0901 25.3561L14.3621 25.0681C14.7781 25.1001 15.1194 24.9614 15.3861 24.6521C15.6634 24.3321 15.8768 23.8894 16.0261 23.3241C16.1861 22.7481 16.3034 22.0814 16.3781 21.3241C16.4528 20.5561 16.5061 19.7347 16.5381 18.8601L16.6501 15.2601H24.5221V25.7081H22.9381ZM13.9621 28.9081L13.9781 25.0681H26.1701V28.9081H24.6821V26.4601H15.4661L15.4501 28.9081H13.9621ZM31.69 26.5561C30.7833 26.5561 29.9833 26.3694 29.29 25.9961C28.6073 25.6227 28.074 25.1107 27.69 24.4601C27.3166 23.8094 27.13 23.0627 27.13 22.2201C27.13 21.3774 27.3113 20.6307 27.674 19.9801C28.0473 19.3294 28.554 18.8227 29.194 18.4601C29.8446 18.0867 30.5753 17.9001 31.386 17.9001C32.2073 17.9001 32.9326 18.0814 33.562 18.4441C34.1913 18.8067 34.682 19.3187 35.034 19.9801C35.3966 20.6307 35.578 21.3934 35.578 22.2681C35.578 22.3321 35.5726 22.4067 35.562 22.4921C35.562 22.5774 35.5566 22.6574 35.546 22.7321H28.33V21.6281H34.746L34.122 22.0121C34.1326 21.4681 34.0206 20.9827 33.786 20.5561C33.5513 20.1294 33.226 19.7987 32.81 19.5641C32.4046 19.3187 31.93 19.1961 31.386 19.1961C30.8526 19.1961 30.378 19.3187 29.962 19.5641C29.546 19.7987 29.2206 20.1347 28.986 20.5721C28.7513 20.9987 28.634 21.4894 28.634 22.0441V22.3001C28.634 22.8654 28.762 23.3721 29.018 23.8201C29.2846 24.2574 29.6526 24.5987 30.122 24.8441C30.5913 25.0894 31.13 25.2121 31.738 25.2121C32.2393 25.2121 32.6926 25.1267 33.098 24.9561C33.514 24.7854 33.8766 24.5294 34.186 24.1881L35.034 25.1801C34.65 25.6281 34.17 25.9694 33.594 26.2041C33.0286 26.4387 32.394 26.5561 31.69 26.5561ZM37.9609 26.4601V17.9801H39.4969V21.5801H44.3289V17.9801H45.8649V26.4601H44.3289V22.9081H39.4969V26.4601H37.9609ZM52.7715 20.8601C53.8488 20.8707 54.6701 21.1161 55.2355 21.5961C55.8008 22.0761 56.0835 22.7534 56.0835 23.6281C56.0835 24.5454 55.7741 25.2547 55.1555 25.7561C54.5368 26.2467 53.6621 26.4867 52.5315 26.4761L48.8515 26.4601V17.9801H50.3875V20.8441L52.7715 20.8601ZM52.4035 25.3081C53.0968 25.3187 53.6195 25.1801 53.9715 24.8921C54.3341 24.6041 54.5155 24.1774 54.5155 23.6121C54.5155 23.0574 54.3395 22.6521 53.9875 22.3961C53.6355 22.1401 53.1075 22.0067 52.4035 21.9961L50.3875 21.9641V25.2921L52.4035 25.3081Z" fill="#2B2B2B" fill-opacity="0.7"/>
<path d="M34.18 36.662C35.732 36.662 37.068 36.982 38.188 37.622C39.308 38.262 40.172 39.198 40.78 40.43C41.388 41.646 41.692 43.166 41.692 44.99C41.692 46.926 41.324 48.566 40.588 49.91C39.868 51.254 38.868 52.278 37.588 52.982C36.308 53.686 34.82 54.038 33.124 54.038C32.244 54.038 31.396 53.942 30.58 53.75C29.764 53.558 29.06 53.27 28.468 52.886L29.908 50.03C30.372 50.35 30.868 50.574 31.396 50.702C31.924 50.814 32.476 50.87 33.052 50.87C34.492 50.87 35.636 50.43 36.484 49.55C37.348 48.67 37.78 47.366 37.78 45.638C37.78 45.35 37.772 45.03 37.756 44.678C37.74 44.326 37.7 43.974 37.636 43.622L38.692 44.63C38.42 45.254 38.036 45.782 37.54 46.214C37.044 46.63 36.468 46.95 35.812 47.174C35.156 47.382 34.42 47.486 33.604 47.486C32.532 47.486 31.556 47.27 30.676 46.838C29.812 46.406 29.116 45.798 28.588 45.014C28.076 44.23 27.82 43.31 27.82 42.254C27.82 41.102 28.1 40.11 28.66 39.278C29.236 38.446 30.004 37.806 30.964 37.358C31.94 36.894 33.012 36.662 34.18 36.662ZM34.42 39.566C33.86 39.566 33.372 39.67 32.956 39.878C32.54 40.07 32.212 40.358 31.972 40.742C31.732 41.11 31.612 41.55 31.612 42.062C31.612 42.83 31.868 43.446 32.38 43.91C32.908 44.358 33.604 44.582 34.468 44.582C35.028 44.582 35.524 44.478 35.956 44.27C36.404 44.046 36.748 43.742 36.988 43.358C37.228 42.974 37.348 42.542 37.348 42.062C37.348 41.582 37.228 41.158 36.988 40.79C36.764 40.406 36.436 40.11 36.004 39.902C35.572 39.678 35.044 39.566 34.42 39.566Z" fill="#2B2B2B"/>
</svg>
