<svg width="70" height="71" viewBox="0 0 70 71" fill="none" xmlns="http://www.w3.org/2000/svg">
<rect x="2" y="2.56006" width="66" height="66" rx="33" fill="white"/>
<rect x="2" y="2.56006" width="66" height="66" rx="33" stroke="#AED5E2" stroke-width="4"/>
<path d="M22.9381 25.7081V16.6521H18.0261L17.9461 19.0041C17.9141 19.7934 17.8608 20.5507 17.7861 21.2761C17.7221 22.0014 17.6261 22.6574 17.4981 23.2441C17.3701 23.8201 17.1888 24.2947 16.9541 24.6681C16.7301 25.0414 16.4421 25.2707 16.0901 25.3561L14.3621 25.0681C14.7781 25.1001 15.1194 24.9614 15.3861 24.6521C15.6634 24.3321 15.8768 23.8894 16.0261 23.3241C16.1861 22.7481 16.3034 22.0814 16.3781 21.3241C16.4528 20.5561 16.5061 19.7347 16.5381 18.8601L16.6501 15.2601H24.5221V25.7081H22.9381ZM13.9621 28.9081L13.9781 25.0681H26.1701V28.9081H24.6821V26.4601H15.4661L15.4501 28.9081H13.9621ZM31.69 26.5561C30.7833 26.5561 29.9833 26.3694 29.29 25.9961C28.6073 25.6227 28.074 25.1107 27.69 24.4601C27.3166 23.8094 27.13 23.0627 27.13 22.2201C27.13 21.3774 27.3113 20.6307 27.674 19.9801C28.0473 19.3294 28.554 18.8227 29.194 18.4601C29.8446 18.0867 30.5753 17.9001 31.386 17.9001C32.2073 17.9001 32.9326 18.0814 33.562 18.4441C34.1913 18.8067 34.682 19.3187 35.034 19.9801C35.3966 20.6307 35.578 21.3934 35.578 22.2681C35.578 22.3321 35.5726 22.4067 35.562 22.4921C35.562 22.5774 35.5566 22.6574 35.546 22.7321H28.33V21.6281H34.746L34.122 22.0121C34.1326 21.4681 34.0206 20.9827 33.786 20.5561C33.5513 20.1294 33.226 19.7987 32.81 19.5641C32.4046 19.3187 31.93 19.1961 31.386 19.1961C30.8526 19.1961 30.378 19.3187 29.962 19.5641C29.546 19.7987 29.2206 20.1347 28.986 20.5721C28.7513 20.9987 28.634 21.4894 28.634 22.0441V22.3001C28.634 22.8654 28.762 23.3721 29.018 23.8201C29.2846 24.2574 29.6526 24.5987 30.122 24.8441C30.5913 25.0894 31.13 25.2121 31.738 25.2121C32.2393 25.2121 32.6926 25.1267 33.098 24.9561C33.514 24.7854 33.8766 24.5294 34.186 24.1881L35.034 25.1801C34.65 25.6281 34.17 25.9694 33.594 26.2041C33.0286 26.4387 32.394 26.5561 31.69 26.5561ZM37.9609 26.4601V17.9801H39.4969V21.5801H44.3289V17.9801H45.8649V26.4601H44.3289V22.9081H39.4969V26.4601H37.9609ZM52.7715 20.8601C53.8488 20.8707 54.6701 21.1161 55.2355 21.5961C55.8008 22.0761 56.0835 22.7534 56.0835 23.6281C56.0835 24.5454 55.7741 25.2547 55.1555 25.7561C54.5368 26.2467 53.6621 26.4867 52.5315 26.4761L48.8515 26.4601V17.9801H50.3875V20.8441L52.7715 20.8601ZM52.4035 25.3081C53.0968 25.3187 53.6195 25.1801 53.9715 24.8921C54.3341 24.6041 54.5155 24.1774 54.5155 23.6121C54.5155 23.0574 54.3395 22.6521 53.9875 22.3961C53.6355 22.1401 53.1075 22.0067 52.4035 21.9961L50.3875 21.9641V25.2921L52.4035 25.3081Z" fill="#2B2B2B" fill-opacity="0.7"/>
<path d="M34.976 54.038C33.568 54.038 32.336 53.83 31.28 53.414C30.224 52.982 29.4 52.382 28.808 51.614C28.216 50.83 27.92 49.918 27.92 48.878C27.92 47.838 28.208 46.958 28.784 46.238C29.376 45.502 30.2 44.95 31.256 44.582C32.312 44.198 33.552 44.006 34.976 44.006C36.416 44.006 37.664 44.198 38.72 44.582C39.792 44.95 40.616 45.502 41.192 46.238C41.784 46.958 42.08 47.838 42.08 48.878C42.08 49.918 41.784 50.83 41.192 51.614C40.6 52.382 39.768 52.982 38.696 53.414C37.64 53.83 36.4 54.038 34.976 54.038ZM34.976 51.182C35.952 51.182 36.72 50.966 37.28 50.534C37.856 50.102 38.144 49.51 38.144 48.758C38.144 48.006 37.856 47.422 37.28 47.006C36.72 46.574 35.952 46.358 34.976 46.358C34.016 46.358 33.256 46.574 32.696 47.006C32.136 47.422 31.856 48.006 31.856 48.758C31.856 49.51 32.136 50.102 32.696 50.534C33.256 50.966 34.016 51.182 34.976 51.182ZM34.976 45.974C33.68 45.974 32.544 45.798 31.568 45.446C30.608 45.094 29.856 44.582 29.312 43.91C28.784 43.222 28.52 42.406 28.52 41.462C28.52 40.47 28.792 39.622 29.336 38.918C29.88 38.198 30.64 37.646 31.616 37.262C32.592 36.862 33.712 36.662 34.976 36.662C36.272 36.662 37.4 36.862 38.36 37.262C39.336 37.646 40.096 38.198 40.64 38.918C41.2 39.622 41.48 40.47 41.48 41.462C41.48 42.406 41.208 43.222 40.664 43.91C40.136 44.582 39.384 45.094 38.408 45.446C37.432 45.798 36.288 45.974 34.976 45.974ZM34.976 43.694C35.792 43.694 36.432 43.51 36.896 43.142C37.376 42.774 37.616 42.27 37.616 41.63C37.616 40.958 37.368 40.438 36.872 40.07C36.392 39.702 35.76 39.518 34.976 39.518C34.208 39.518 33.584 39.702 33.104 40.07C32.624 40.438 32.384 40.958 32.384 41.63C32.384 42.27 32.616 42.774 33.08 43.142C33.544 43.51 34.176 43.694 34.976 43.694Z" fill="#2B2B2B"/>
</svg>
