<svg width="38" height="37" viewBox="0 0 38 37" fill="none" xmlns="http://www.w3.org/2000/svg">
<g clip-path="url(#clip0_1_215)">
<g clip-path="url(#clip1_1_215)">
<path d="M19.155 28.4148C24.5398 28.4148 28.905 24.0496 28.905 18.6648C28.905 13.28 24.5398 8.91479 19.155 8.91479C13.7702 8.91479 9.40494 13.28 9.40494 18.6648C9.40494 24.0496 13.7702 28.4148 19.155 28.4148Z" stroke="#BD3C00" stroke-width="1.5" stroke-linecap="round" stroke-linejoin="round"/>
<path d="M29.865 29.3748L29.67 29.1798M29.67 8.1498L29.865 7.95479M8.44494 29.3748L8.63994 29.1798M19.155 3.78479V3.66479M19.155 33.6648V33.5448M4.27494 18.6648H4.15494M34.155 18.6648H34.035M8.63994 8.1498L8.44494 7.95479" stroke="#BD3C00" stroke-width="2" stroke-linecap="round" stroke-linejoin="round"/>
</g>
</g>
<defs>
<clipPath id="clip0_1_215">
<rect width="37" height="36" fill="white" transform="translate(0.821655 0.664795)"/>
</clipPath>
<clipPath id="clip1_1_215">
<rect width="37" height="36" fill="white" transform="translate(0.821655 0.664795)"/>
</clipPath>
</defs>
</svg>
